<svg id="Layer_1" data-name="Layer 1" xmlns="http://www.w3.org/2000/svg" viewBox="0 0 48.24 48.24">
  <defs>
    <style>.cls-1{fill:#ff8200;}.cls-2{fill:#fff;}</style>
  </defs>
  <title>University-T</title>
  <polygon class="cls-1" points="47.999 47.999 47.999 0 0 0 0 47.999 47.999 47.999 47.999 47.999"/>
  <path class="cls-2"
        d="M41.941,6.054V18.165H37.456c0-2.231-2.208-4.037-4.934-4.037a5.088,5.088,0,0,0-4.485,2.355V31.62a5.721,5.721,0,0,0,5.592,5.83h.014v4.486H14.357V37.45h.013a5.721,5.721,0,0,0,5.593-5.83V16.483a5.089,5.089,0,0,0-4.485-2.355c-2.725,0-4.934,1.806-4.934,4.037H6.058V6.054Z"/>
</svg>
